<svg width="18" height="18" viewBox="0 0 18 18" fill="none" xmlns="http://www.w3.org/2000/svg">
<path d="M10.4099 9L16.7099 2.71C17.1021 2.31818 17.1021 1.68687 16.7099 1.29376C16.3189 0.90097 15.6876 0.900975 15.2999 1.29376L8.99994 7.59L2.70994 1.29376C2.31748 0.900975 1.68617 0.900975 1.29376 1.29376C0.900977 1.68687 0.900977 2.31818 1.29376 2.71L7.59994 9L1.29376 15.29C1.10158 15.4824 0.995234 15.7376 0.995234 16.0022C0.995234 16.2669 1.10158 16.5221 1.29376 16.7144C1.68617 17.1065 2.31748 17.1065 2.70994 16.7144L8.99994 10.41L15.2999 16.7144C15.6876 17.1071 16.3189 17.1071 16.7099 16.7144C17.1021 16.3213 17.1021 15.6898 16.7099 15.29L10.4099 9Z" fill="white"/>
</svg> 