<svg width="308" height="308" viewBox="0 0 308 308" fill="none" xmlns="http://www.w3.org/2000/svg">
<path d="M149.895 27.9842C146.789 27.9842 144.273 30.5 144.273 33.6051V83.1779C144.273 86.284 146.789 88.7998 149.895 88.7998H233.316V33.6051C233.316 30.5 230.8 27.9842 227.695 27.9842H149.895Z" fill="#915EFF"/>
<path d="M227.695 280.001C230.8 280.001 233.316 277.486 233.316 274.38V148.011H149.895C146.789 148.011 144.273 150.527 144.273 153.633V274.38C144.273 277.486 146.789 280.001 149.895 280.001H227.695Z" fill="#915EFF"/>
<path d="M94.0534 280.001H171.853C174.958 280.001 177.474 277.486 177.474 274.38V224.807C177.474 221.701 174.958 219.185 171.853 219.185H88.4315V274.38C88.4315 277.486 90.9474 280.001 94.0534 280.001Z" fill="#915EFF"/>
<path d="M88.4315 159.255V208.828C88.4315 211.934 90.9474 214.45 94.0534 214.45H171.853C174.958 214.45 177.474 211.934 177.474 208.828V159.255C177.474 156.149 174.958 153.633 171.853 153.633H94.0534C90.9474 153.633 88.4315 156.149 88.4315 159.255Z" fill="white"/>
<path d="M88.4315 33.6051V148.011H171.853C174.958 148.011 177.474 145.496 177.474 142.39V33.6051C177.474 30.5 174.958 27.9842 171.853 27.9842H94.0534C90.9474 27.9842 88.4315 30.5 88.4315 33.6051Z" fill="white"/>
</svg> 