<svg width="20" height="12" viewBox="0 0 20 12" fill="none" xmlns="http://www.w3.org/2000/svg">
<path d="M9 2L19 2C19.5523 2 20 1.55228 20 1C20 0.447715 19.5523 0 19 0L9 0C8.44772 0 8 0.447715 8 1C8 1.55228 8.44772 2 9 2Z" fill="white"/>
<path d="M19 5H1C0.447715 5 0 5.44772 0 6C0 6.55228 0.447715 7 1 7H19C19.5523 7 20 6.55228 20 6C20 5.44772 19.5523 5 19 5Z" fill="white"/>
<path d="M19 10H9C8.44772 10 8 10.4477 8 11C8 11.5523 8.44772 12 9 12H19C19.5523 12 20 11.5523 20 11C20 10.4477 19.5523 10 19 10Z" fill="white"/>
</svg> 